<mxfile host="app.diagrams.net" modified="2024-08-22T09:13:24.216Z" agent="Mozilla/5.0 (Windows NT 10.0; Win64; x64) AppleWebKit/537.36 (KHTML, like Gecko) Chrome/127.0.0.0 Safari/537.36 Edg/127.0.0.0" version="24.5.4" etag="FU1Yh6yV77Y2ZWA94Igc" type="github">
  <diagram name="第 1 页" id="pWLL7GsLmBU-mkfT2Wmw">
    <mxGraphModel>
      <root>
        <mxCell id="0" />
        <mxCell id="1" parent="0" />
      </root>
    </mxGraphModel>
  </diagram>
</mxfile>
